<svg width="24" height="24" viewBox="0 0 24 24" fill="none" xmlns="http://www.w3.org/2000/svg">
<path d="M17.6014 8.63218L17.6014 5.60012C17.6014 4.11487 17.0113 2.69046 15.9608 1.64023C14.9103 0.590009 13.4856 -9.88149e-07 12 -8.58275e-07C10.5144 -7.28401e-07 9.08967 0.590009 8.03921 1.64024C6.98874 2.69046 6.39859 4.11487 6.39859 5.60012L6.39859 8.63218L0.0690021 22.8725C0.00329009 23.0203 -0.0160809 23.1845 0.013441 23.3435C0.0429649 23.5025 0.119995 23.6488 0.234375 23.7632C0.348757 23.8775 0.495117 23.9545 0.65416 23.984C0.813202 24.0136 0.977457 23.9942 1.12527 23.9285L7.87897 20.9284L11.4959 23.8245C11.6378 23.9381 11.8142 24 11.996 24C12.1778 24 12.3542 23.9381 12.4961 23.8245L16.121 20.9284L22.8747 23.9285C23.0225 23.9942 23.1868 24.0136 23.3458 23.984C23.5049 23.9545 23.6512 23.8775 23.7656 23.7632C23.88 23.6488 23.957 23.5025 23.9866 23.3435C24.0161 23.1845 23.9967 23.0203 23.931 22.8725L17.6014 8.63218ZM7.99899 8.00017L7.99899 7.20015L16.001 7.20015L16.001 8.00017L7.99899 8.00017ZM12 1.60003C13.0611 1.60003 14.0788 2.02147 14.8291 2.77163C15.5795 3.52179 16.001 4.53923 16.001 5.60012L7.99899 5.60012C7.99899 4.53923 8.42053 3.52179 9.17086 2.77163C9.9212 2.02147 10.9389 1.60003 12 1.60003ZM7.71892 9.6002L9.40735 9.6002L7.30282 19.4324L2.39759 21.6005L7.71892 9.6002ZM12 22.1765L8.88722 19.6804L11.0478 9.6002L12.9522 9.6002L15.1128 19.6804L12 22.1765ZM16.6972 19.4324L14.5927 9.6002L16.2811 9.6002L21.6024 21.6004L16.6972 19.4324Z" fill="white"/>
</svg>
