<svg width="26" height="24" viewBox="0 0 26 24" fill="none" xmlns="http://www.w3.org/2000/svg">
<path d="M23.4601 9.76199C23.113 9.81157 22.766 10.0099 22.6172 10.357C21.7248 5.54762 17.7087 1.92822 12.8994 1.92822C8.09006 1.92822 4.07401 5.54762 3.18156 10.357C3.03281 10.0099 2.68575 9.81157 2.33868 9.76199C1.59497 9.76199 1 10.9519 1 12.4394C1 13.9268 1.59497 15.1167 2.33868 15.1167C2.68575 15.0671 3.03281 14.8688 3.18156 14.5218C4.07401 19.3807 8.09006 23.0001 12.8994 23.0001C17.7087 23.0001 21.7248 19.3807 22.6172 14.5218C22.766 14.8688 23.0635 15.0671 23.4601 15.1167C24.2038 15.1167 24.7988 13.9268 24.7988 12.4394C24.7988 10.9519 24.2038 9.76199 23.4601 9.76199Z" stroke="white" stroke-width="2" stroke-linecap="round" stroke-linejoin="round"/>
<path d="M12.6511 1.92822C12.6511 1.92822 14.5848 3.36607 14.7831 5.64678V5.89469C14.6839 7.03505 13.6923 7.87792 12.5519 7.82834C11.5107 7.77876 10.7174 6.93589 10.6183 5.89469C10.6183 5.3493 10.8166 4.85349 11.2133 4.50643M10.3208 16.1083C11.957 16.8521 13.841 16.8521 15.5268 16.1083" stroke="white" stroke-width="2" stroke-linecap="round" stroke-linejoin="round"/>
<path d="M12.8992 16.6538C11.9571 16.6538 11.1143 17.3975 11.1143 18.3891C11.1143 19.3312 11.858 20.174 12.8496 20.174C13.8412 20.174 14.6345 19.4303 14.6345 18.4387C14.6345 18.4387 14.6345 18.4387 14.6345 18.3891C14.6345 17.4471 13.8412 16.6538 12.8992 16.6538Z" stroke="white" stroke-width="2" stroke-linecap="round" stroke-linejoin="round"/>
<path d="M15.9238 11.5964H16.618" stroke="white" stroke-width="2" stroke-linecap="round" stroke-linejoin="round"/>
<path d="M9.18115 11.5964H9.92486" stroke="white" stroke-width="2" stroke-linecap="round" stroke-linejoin="round"/>
<path d="M15.9238 2.37451C17.0146 3.46529 17.4113 5.05188 16.9154 6.5393" stroke="white" stroke-width="2" stroke-linecap="round" stroke-linejoin="round"/>
</svg>
