<svg width="123" height="132" viewBox="0 0 123 132" fill="none" xmlns="http://www.w3.org/2000/svg">
<path d="M82.9696 -16C37.3726 -16 0.375 20.5073 0.375 65.5C0.375 110.493 37.3726 147 82.9696 147C128.567 147 165.564 110.493 165.564 65.5C165.564 20.5073 128.567 -16 82.9696 -16ZM156.765 95.4952C155.565 95.4952 153.965 94.9033 153.766 93.7194C153.566 93.1275 153.965 91.3518 154.365 90.1681C154.766 87.9973 155.766 86.0233 156.366 84.051C156.966 82.4721 157.366 80.3013 159.166 80.1046C160.365 79.9078 160.766 80.8934 161.565 80.6965C161.564 82.6677 157.165 94.7051 156.765 95.4952ZM148.765 45.569C147.965 46.3578 146.565 47.1479 144.765 46.556C143.165 46.1609 141.766 44.582 140.766 43.0046C139.365 40.8338 137.767 39.0582 137.566 36.0971C137.366 32.5458 138.166 29.388 140.965 28.993C144.564 28.4011 146.965 32.7428 148.565 35.1101C149.365 36.2939 149.966 37.6759 150.165 38.4646C150.965 41.2273 150.165 44.1869 148.765 45.569ZM92.1683 15.5735C95.5679 15.1784 99.9678 16.1654 102.568 17.3492C105.168 18.533 108.968 22.0856 109.568 26.0324C109.969 29.7821 107.568 31.9528 105.169 33.1365C103.168 34.1234 100.968 34.7154 97.969 34.5185C93.9696 34.3217 88.7689 31.164 86.7701 27.611C85.3695 25.4403 84.7697 21.6906 86.3697 19.1263C87.3686 17.3492 89.3686 15.9686 92.1683 15.5735ZM88.1675 -9.68558C88.1675 -11.4613 89.9671 -12.2514 91.7665 -12.4482C95.3656 -12.8433 99.7653 -11.6595 102.366 -10.2775C103.366 -9.88239 104.366 -8.89543 104.366 -8.10668C104.366 -6.92287 103.366 -6.52781 102.766 -5.93591C100.367 -5.73907 98.1669 -6.52781 95.766 -6.72466C93.9664 -6.92149 91.9659 -6.52781 90.5667 -7.11971C89.5678 -7.51477 88.3684 -8.69865 88.1675 -9.68558ZM86.5674 64.1183C87.7671 63.3295 89.1677 62.9345 91.1668 62.7363C95.5665 62.3412 98.9663 63.9201 101.166 66.6826C102.166 67.8665 103.766 70.8274 103.966 72.7997C104.566 78.5218 99.7654 83.2586 95.9671 84.8373C92.368 86.4161 87.5676 85.4292 84.9675 83.2584C82.568 81.2845 80.3681 78.128 80.3681 73.9836C80.3681 69.8416 83.5683 66.092 86.5674 64.1183ZM105.767 117.597C108.166 114.439 112.167 112.071 117.167 111.479C117.767 111.479 119.566 111.283 120.566 111.479C122.366 111.874 124.166 113.65 124.367 115.031C124.767 117.202 123.366 118.977 122.366 119.964C120.166 122.53 115.966 124.898 111.568 126.081C109.967 126.476 107.968 127.068 106.568 126.673C105.368 126.476 103.968 124.897 103.768 123.911C103.167 121.938 104.767 118.979 105.767 117.597ZM48.1706 102.204C51.5702 101.809 55.3702 103.388 57.7697 105.362C59.7701 106.941 61.9701 109.703 62.7693 112.071C63.5687 115.229 62.1695 118.387 59.3697 119.175C56.3705 119.964 51.9706 118.188 50.1696 117.201C47.5694 116.017 44.7696 113.65 42.9701 111.084C42.3702 110.295 41.7704 109.11 41.7704 107.926C41.7718 104.967 44.9718 102.599 48.1706 102.204ZM41.3714 34.5178C39.9709 34.321 38.1713 32.5439 37.7724 31.7552C36.1723 28.9925 37.372 23.8624 38.9721 21.6914C41.3715 18.5336 45.5717 16.1659 50.771 15.9693C51.9707 15.9693 53.3712 16.1661 54.37 17.3513C56.5699 19.5221 55.5697 24.6524 54.1705 27.4151C52.5705 29.9809 48.7705 33.3356 45.7711 34.3226C44.171 34.7163 42.3716 34.9129 41.3714 34.5178ZM14.1732 76.7478C12.5731 76.7478 11.3735 74.5771 10.7736 72.6031C9.97427 70.0373 8.97405 66.881 9.37302 63.1313C9.57251 59.9736 10.5727 56.8158 13.3724 56.4222C16.3716 58.1979 17.5728 61.9476 17.9717 66.881C18.1726 70.2355 17.1739 76.7478 14.1732 76.7478Z" fill="white" fill-opacity="0.25"/>
</svg>
