<svg width="25" height="24" viewBox="0 0 25 24" fill="none" xmlns="http://www.w3.org/2000/svg">
<path d="M12.5 0C5.59927 0 0 5.3753 0 12C0 18.6247 5.59927 24 12.5 24C19.4007 24 25 18.6247 25 12C25 5.3753 19.4007 0 12.5 0ZM23.6683 16.4165C23.4867 16.4165 23.2446 16.3293 23.2144 16.155C23.1842 16.0679 23.2446 15.8064 23.3052 15.6321C23.3657 15.3125 23.5171 15.0218 23.6079 14.7314C23.6987 14.499 23.7593 14.1793 24.0316 14.1504C24.2132 14.1214 24.2738 14.2665 24.3948 14.2375C24.3945 14.5278 23.7289 16.3001 23.6683 16.4165ZM22.4575 9.06538C22.3365 9.18151 22.1246 9.29785 21.8522 9.2107C21.6101 9.15253 21.3983 8.92006 21.247 8.6878C21.035 8.36817 20.7931 8.10673 20.7627 7.67074C20.7325 7.14784 20.8534 6.6829 21.2772 6.62474C21.8218 6.53759 22.1852 7.17685 22.4273 7.52541C22.5483 7.69972 22.6393 7.9032 22.6695 8.01933C22.7905 8.4261 22.6695 8.86188 22.4575 9.06538ZM13.8921 4.64886C14.4066 4.59069 15.0725 4.73601 15.466 4.91031C15.8596 5.08462 16.4347 5.6077 16.5255 6.18882C16.5861 6.74092 16.2227 7.06054 15.8596 7.23482C15.5569 7.38014 15.2239 7.46729 14.77 7.43831C14.1648 7.40933 13.3777 6.94439 13.0752 6.42126C12.8632 6.10163 12.7724 5.54953 13.0146 5.17196C13.1657 4.91031 13.4684 4.70703 13.8921 4.64886ZM13.2867 0.92973C13.2867 0.668276 13.559 0.551944 13.8313 0.522961C14.376 0.464792 15.0419 0.639095 15.4355 0.842584C15.5868 0.900752 15.7382 1.04607 15.7382 1.16221C15.7382 1.33651 15.5868 1.39468 15.496 1.48183C15.1329 1.51081 14.8 1.39468 14.4366 1.36569C14.1643 1.33671 13.8615 1.39468 13.6497 1.30753C13.4986 1.24936 13.3171 1.07504 13.2867 0.92973ZM13.0445 11.7966C13.2261 11.6804 13.438 11.6223 13.7406 11.5931C14.4064 11.5349 14.921 11.7674 15.2539 12.1741C15.4053 12.3484 15.6474 12.7844 15.6776 13.0748C15.7684 13.9173 15.0419 14.6148 14.4671 14.8472C13.9224 15.0797 13.1959 14.9344 12.8024 14.6147C12.4392 14.3241 12.1063 13.8593 12.1063 13.2491C12.1063 12.6393 12.5906 12.0872 13.0445 11.7966ZM15.9502 19.6707C16.3133 19.2057 16.9188 18.8571 17.6755 18.77C17.7662 18.77 18.0386 18.741 18.19 18.77C18.4623 18.8281 18.7346 19.0896 18.7651 19.2929C18.8257 19.6125 18.6137 19.8739 18.4623 20.0193C18.1294 20.3971 17.4937 20.7457 16.8281 20.9199C16.5859 20.9781 16.2834 21.0653 16.0714 21.0071C15.8898 20.9781 15.6779 20.7456 15.6477 20.6003C15.5567 20.3099 15.7988 19.8741 15.9502 19.6707ZM7.23347 17.4043C7.74797 17.3461 8.32305 17.5786 8.6862 17.8692C8.98895 18.1017 9.3219 18.5085 9.44285 18.8571C9.56383 19.322 9.35207 19.787 8.92835 19.9031C8.47445 20.0192 7.80855 19.7578 7.53599 19.6125C7.14247 19.4381 6.71875 19.0896 6.44641 18.7118C6.35562 18.5956 6.26484 18.4211 6.26484 18.2468C6.26505 17.8111 6.74936 17.4625 7.23347 17.4043ZM6.20447 7.43821C5.9925 7.40922 5.72015 7.14756 5.65978 7.03144C5.41762 6.62467 5.59919 5.86931 5.84134 5.54965C6.20448 5.08471 6.84013 4.73609 7.627 4.70714C7.80857 4.70714 8.02053 4.73612 8.17169 4.91062C8.50463 5.23025 8.35326 5.98563 8.1415 6.39241C7.89934 6.7702 7.32426 7.26413 6.87031 7.40946C6.62816 7.46743 6.35582 7.49637 6.20447 7.43821ZM2.08824 13.6561C1.84608 13.6561 1.66452 13.3365 1.57374 13.0458C1.45277 12.6681 1.30139 12.2033 1.36177 11.6512C1.39197 11.1863 1.54334 10.7213 1.96705 10.6634C2.42096 10.9248 2.60275 11.4769 2.66312 12.2033C2.69352 12.6973 2.54238 13.6561 2.08824 13.6561Z" fill="white"/>
</svg>
