<svg width="22" height="22" viewBox="0 0 22 22" fill="none" xmlns="http://www.w3.org/2000/svg">
<path d="M7.47656 10.0179L11 7.46429L14.5234 10.0179L13.1853 14.1429H8.82701L7.47656 10.0179ZM11 0C12.4896 0 13.9137 0.290551 15.2723 0.871652C16.631 1.45275 17.8013 2.23438 18.7835 3.21652C19.7656 4.19866 20.5472 5.36905 21.1283 6.72768C21.7094 8.08631 22 9.51042 22 11C22 12.4896 21.7094 13.9137 21.1283 15.2723C20.5472 16.631 19.7656 17.8013 18.7835 18.7835C17.8013 19.7656 16.631 20.5472 15.2723 21.1283C13.9137 21.7094 12.4896 22 11 22C9.51042 22 8.08631 21.7094 6.72768 21.1283C5.36905 20.5472 4.19866 19.7656 3.21652 18.7835C2.23438 17.8013 1.45275 16.631 0.871652 15.2723C0.290551 13.9137 0 12.4896 0 11C0 9.51042 0.290551 8.08631 0.871652 6.72768C1.45275 5.36905 2.23438 4.19866 3.21652 3.21652C4.19866 2.23438 5.36905 1.45275 6.72768 0.871652C8.08631 0.290551 9.51042 0 11 0ZM18.5993 16.5737C19.8188 14.9122 20.4286 13.0543 20.4286 11V10.9632L19.1763 12.0558L16.2299 9.3058L17.0033 5.3404L18.6484 5.48772C17.4208 3.80171 15.8289 2.64769 13.8728 2.02567L14.5234 3.54799L11 5.5L7.47656 3.54799L8.12723 2.02567C6.17113 2.64769 4.57924 3.80171 3.35156 5.48772L5.00893 5.3404L5.77009 9.3058L2.82366 12.0558L1.57143 10.9632V11C1.57143 13.0543 2.18118 14.9122 3.40067 16.5737L3.76897 14.9531L7.77121 15.4442L9.47768 19.1027L8.05357 19.9498C9.01116 20.269 9.9933 20.4286 11 20.4286C12.0067 20.4286 12.9888 20.269 13.9464 19.9498L12.5223 19.1027L14.2288 15.4442L18.231 14.9531L18.5993 16.5737Z" fill="white"/>
</svg>
