<svg width="24" height="24" viewBox="0 0 24 24" fill="none" xmlns="http://www.w3.org/2000/svg">
<path fill-rule="evenodd" clip-rule="evenodd" d="M6.06006 2.74446C7.7728 1.64084 9.80992 1.00006 11.9937 1.00006C12.8028 1.00006 13.5918 1.08783 14.3517 1.25434C14.3737 1.25721 14.3954 1.26201 14.4166 1.26877C16.802 1.80673 18.8966 3.12154 20.4193 4.93234C20.4638 4.96688 20.4987 5.00989 20.5231 5.0576C22.0708 6.95377 22.9999 9.37358 22.9999 12.0063C22.9999 14.1789 22.3657 16.2063 21.2725 17.9135C21.2523 17.9722 21.2178 18.0256 21.1716 18.0682C19.7468 20.2134 17.5889 21.8327 15.0578 22.5666C15.0092 22.5926 14.9554 22.6078 14.9005 22.6109C14.3575 22.7596 13.7979 22.8677 13.2251 22.9316C13.1764 22.9472 13.1245 22.9528 13.0728 22.9476C12.7177 22.9823 12.3577 23 11.9937 23C9.45423 23 7.11306 22.1344 5.24973 20.6829C5.21247 20.6625 5.17908 20.6361 5.15085 20.6049C4.31016 19.9345 3.56958 19.1436 2.95549 18.2586C2.93244 18.2333 2.91304 18.2049 2.89773 18.1746C1.7004 16.4146 1 14.2907 1 12.0063C1 11.2664 1.07332 10.5432 1.21307 9.8438C1.21173 9.78774 1.22289 9.73078 1.2477 9.67722C1.86247 6.83162 3.57974 4.39215 5.9277 2.83111C5.96648 2.79192 6.01174 2.76304 6.06006 2.74446ZM2.02526 9.65288C2.61311 7.15599 4.11514 5.00858 6.15678 3.58564L7.65382 5.05318L6.07991 8.64865L3.48895 10.5045L2.02526 9.65288ZM3.17531 11.1934L3.92361 14.8185L3.13285 17.136C2.25574 15.6268 1.7531 13.8742 1.7531 12.0063C1.7531 11.4724 1.79408 10.9478 1.87303 10.4356L3.17531 11.1934ZM5.57508 19.9803C4.8457 19.392 4.19836 18.7059 3.6532 17.9421L4.56777 15.2619L7.50991 15.7088L10.0814 18.6218L9.27628 20.1059L5.57508 19.9803ZM3.9282 11.1159L4.62876 14.5096L7.43533 14.9358L8.43291 11.629L6.33476 9.39226L3.9282 11.1159ZM8.12246 15.2647L10.68 18.1617L14.4391 17.4886L15.4428 13.6875L13.1465 11.122L9.15011 11.8581L8.12246 15.2647ZM6.70396 20.7722L9.39081 20.8633L11.7877 22.2449C9.93097 22.208 8.19384 21.6746 6.70396 20.7722ZM10.7827 18.9083L14.6447 18.2167L16.1089 19.3446L14.6366 21.9021C14.1638 22.0282 13.6777 22.1212 13.1808 22.1787L10.0023 20.3467L10.7827 18.9083ZM15.7071 21.5521L16.8551 19.558L19.8869 18.5357C18.7816 19.8663 17.3461 20.914 15.7071 21.5521ZM14.2747 7.12841L13.0116 10.3814L8.98972 11.1216L6.8278 8.81714L8.37195 5.28907L12.0873 4.4082L14.2747 7.12841ZM14.9422 7.49032L18.2348 8.12122L18.76 11.8087L15.9524 13.1275L13.7211 10.6347L14.9422 7.49032ZM16.1778 13.8533L19.1155 12.4733L21.8722 14.7537C21.5999 15.7293 21.1862 16.6466 20.6548 17.4822L16.6699 18.826L15.1701 17.6708L16.1778 13.8533ZM22.2468 12.0063C22.2468 9.71563 21.4919 7.59808 20.2178 5.88938L18.9617 7.88546L19.5242 11.8342L22.0644 13.9356C22.1841 13.3106 22.2468 12.6656 22.2468 12.0063ZM14.9108 6.71756L12.7234 3.99758L14.4353 2.04684C16.5168 2.55714 18.3508 3.70468 19.7177 5.27003L18.3877 7.38388L14.9108 6.71756ZM6.80668 3.16808C8.32879 2.26921 10.1021 1.75317 11.9937 1.75317C12.5344 1.75317 13.0655 1.79524 13.5839 1.87627L12.0283 3.64866L8.21818 4.55175L6.80668 3.16808Z" fill="white"/>
<path d="M6.06006 2.74446L6.19548 2.95461L6.17381 2.96858L6.14975 2.97783L6.06006 2.74446ZM14.3517 1.25434L14.3193 1.50223L14.3087 1.50084L14.2982 1.49855L14.3517 1.25434ZM14.4166 1.26877L14.3616 1.51265L14.3511 1.51028L14.3409 1.50701L14.4166 1.26877ZM20.4193 4.93234L20.266 5.12983L20.2451 5.11356L20.228 5.09324L20.4193 4.93234ZM20.5231 5.0576L20.3294 5.21568L20.3126 5.19511L20.3005 5.17147L20.5231 5.0576ZM21.2725 17.9135L21.0361 17.8323L21.0458 17.8039L21.062 17.7787L21.2725 17.9135ZM21.1716 18.0682L20.9634 17.9299L20.98 17.9048L21.0021 17.8844L21.1716 18.0682ZM15.0578 22.5666L14.9396 22.3463L14.9629 22.3338L14.9882 22.3265L15.0578 22.5666ZM14.9005 22.6109L14.8344 22.3698L14.8599 22.3628L14.8863 22.3613L14.9005 22.6109ZM13.2251 22.9316L13.1492 22.6935L13.1728 22.6859L13.1974 22.6832L13.2251 22.9316ZM13.0728 22.9476L13.0485 22.6988L13.0733 22.6963L13.098 22.6988L13.0728 22.9476ZM5.24973 20.6829L5.36957 20.4634L5.38737 20.4732L5.40337 20.4856L5.24973 20.6829ZM5.15085 20.6049L5.30672 20.4095L5.32252 20.4221L5.33609 20.437L5.15085 20.6049ZM2.95549 18.2586L3.14049 18.0905L3.15153 18.1026L3.16089 18.1161L2.95549 18.2586ZM2.89773 18.1746L3.10444 18.034L3.11364 18.0475L3.12101 18.0621L2.89773 18.1746ZM1.21307 9.8438L1.463 9.83782L1.46366 9.86557L1.45822 9.89278L1.21307 9.8438ZM1.2477 9.67722L1.49206 9.73001L1.48621 9.75712L1.47455 9.78228L1.2477 9.67722ZM5.9277 2.83111L6.10537 3.00698L6.08739 3.02514L6.06611 3.03929L5.9277 2.83111ZM6.15678 3.58564L6.01383 3.38054L6.18382 3.26207L6.33178 3.40712L6.15678 3.58564ZM2.02526 9.65288L1.89953 9.86896L1.73947 9.77583L1.78191 9.59558L2.02526 9.65288ZM7.65382 5.05318L7.82882 4.87465L7.95201 4.99541L7.88283 5.15343L7.65382 5.05318ZM6.07991 8.64865L6.30892 8.7489L6.28136 8.81187L6.22548 8.85189L6.07991 8.64865ZM3.48895 10.5045L3.63453 10.7078L3.50303 10.802L3.36322 10.7206L3.48895 10.5045ZM3.92361 14.8185L4.16845 14.768L4.18223 14.8348L4.16021 14.8993L3.92361 14.8185ZM3.17531 11.1934L3.30103 10.9773L3.39757 11.0335L3.42014 11.1428L3.17531 11.1934ZM3.13285 17.136L3.36946 17.2168L3.19232 17.7359L2.9167 17.2616L3.13285 17.136ZM1.87303 10.4356L1.62595 10.3975L1.68182 10.0351L1.99876 10.2196L1.87303 10.4356ZM3.6532 17.9421L3.44971 18.0874L3.37514 17.9829L3.41659 17.8614L3.6532 17.9421ZM5.57508 19.9803L5.5666 20.2302L5.48313 20.2273L5.41813 20.1749L5.57508 19.9803ZM4.56777 15.2619L4.33116 15.1812L4.39866 14.9833L4.60531 15.0147L4.56777 15.2619ZM7.50991 15.7088L7.54745 15.4616L7.63723 15.4752L7.69733 15.5433L7.50991 15.7088ZM10.0814 18.6218L10.2689 18.4563L10.3845 18.5874L10.3012 18.741L10.0814 18.6218ZM9.27628 20.1059L9.49602 20.2251L9.4223 20.361L9.2678 20.3557L9.27628 20.1059ZM4.62876 14.5096L4.59123 14.7567L4.41912 14.7306L4.38393 14.5601L4.62876 14.5096ZM3.9282 11.1159L3.68336 11.1665L3.65051 11.0073L3.78263 10.9127L3.9282 11.1159ZM7.43533 14.9358L7.67467 15.008L7.61208 15.2155L7.3978 15.1829L7.43533 14.9358ZM8.43291 11.629L8.61524 11.4579L8.71391 11.5631L8.67225 11.7012L8.43291 11.629ZM6.33476 9.39226L6.18919 9.18901L6.36725 9.06148L6.5171 9.22122L6.33476 9.39226ZM10.68 18.1617L10.7241 18.4078L10.5857 18.4326L10.4926 18.3272L10.68 18.1617ZM8.12246 15.2647L7.93505 15.4302L7.84291 15.3258L7.88311 15.1925L8.12246 15.2647ZM14.4391 17.4886L14.6808 17.5524L14.6401 17.7065L14.4832 17.7346L14.4391 17.4886ZM15.4428 13.6875L15.6291 13.5207L15.7189 13.6211L15.6845 13.7513L15.4428 13.6875ZM13.1465 11.122L13.1012 10.8761L13.2392 10.8507L13.3328 10.9552L13.1465 11.122ZM9.15011 11.8581L8.91076 11.7859L8.95481 11.6399L9.10482 11.6123L9.15011 11.8581ZM9.39081 20.8633L9.39928 20.6135L9.46162 20.6156L9.51565 20.6467L9.39081 20.8633ZM6.70396 20.7722L6.57444 20.986L5.75527 20.4899L6.71244 20.5223L6.70396 20.7722ZM11.7877 22.2449L11.9125 22.0283L11.7827 22.4948L11.7877 22.2449ZM14.6447 18.2167L14.6006 17.9706L14.7096 17.9511L14.7973 18.0186L14.6447 18.2167ZM10.7827 18.9083L10.5629 18.7891L10.6203 18.6835L10.7386 18.6623L10.7827 18.9083ZM16.1089 19.3446L16.2615 19.1465L16.4346 19.2799L16.3256 19.4693L16.1089 19.3446ZM14.6366 21.9021L14.8532 22.0268L14.8014 22.1169L14.701 22.1437L14.6366 21.9021ZM13.1808 22.1787L13.2095 22.427L13.1275 22.4365L13.056 22.3953L13.1808 22.1787ZM10.0023 20.3467L9.8775 20.5633L9.66641 20.4416L9.78259 20.2275L10.0023 20.3467ZM16.8551 19.558L16.6385 19.4333L16.6856 19.3513L16.7752 19.3211L16.8551 19.558ZM15.7071 21.5521L15.7978 21.7851L15.1363 22.0427L15.4905 21.4274L15.7071 21.5521ZM19.8869 18.5357L19.807 18.2988L20.6428 18.017L20.0792 18.6954L19.8869 18.5357ZM13.0116 10.3814L13.2446 10.4718L13.1941 10.602L13.0568 10.6272L13.0116 10.3814ZM14.2747 7.12841L14.4695 6.97175L14.56 7.08429L14.5078 7.21891L14.2747 7.12841ZM8.98972 11.1216L9.03498 11.3675L8.90077 11.3922L8.8074 11.2927L8.98972 11.1216ZM6.8278 8.81714L6.64547 8.98819L6.53267 8.86794L6.59877 8.7169L6.8278 8.81714ZM8.37195 5.28907L8.14293 5.18883L8.19293 5.07458L8.31428 5.04581L8.37195 5.28907ZM12.0873 4.4082L12.0296 4.16495L12.1832 4.12853L12.2821 4.25154L12.0873 4.4082ZM18.2348 8.12122L18.2819 7.87568L18.4572 7.90927L18.4823 8.08597L18.2348 8.12122ZM14.9422 7.49032L14.7092 7.39981L14.7846 7.20557L14.9893 7.24478L14.9422 7.49032ZM18.76 11.8087L19.0075 11.7735L19.0336 11.9564L18.8663 12.035L18.76 11.8087ZM15.9524 13.1275L16.0587 13.3538L15.8902 13.4329L15.7661 13.2943L15.9524 13.1275ZM13.7211 10.6347L13.5348 10.8015L13.4325 10.6872L13.488 10.5442L13.7211 10.6347ZM19.1155 12.4733L19.0092 12.247L19.1527 12.1796L19.2749 12.2807L19.1155 12.4733ZM16.1778 13.8533L15.9361 13.7895L15.9659 13.6767L16.0716 13.627L16.1778 13.8533ZM21.8722 14.7537L22.0315 14.5611L22.1566 14.6646L22.113 14.821L21.8722 14.7537ZM20.6548 17.4822L20.8658 17.6164L20.8184 17.6909L20.7347 17.7191L20.6548 17.4822ZM16.6699 18.826L16.7497 19.0629L16.6231 19.1056L16.5173 19.0241L16.6699 18.826ZM15.1701 17.6708L15.0175 17.8688L14.886 17.7675L14.9284 17.607L15.1701 17.6708ZM20.2178 5.88938L20.0062 5.75623L20.2003 5.44773L20.4182 5.73993L20.2178 5.88938ZM18.9617 7.88546L18.7142 7.92072L18.7013 7.82993L18.7501 7.75231L18.9617 7.88546ZM19.5242 11.8342L19.3649 12.0268L19.2904 11.9652L19.2767 11.8695L19.5242 11.8342ZM22.0644 13.9356L22.3099 13.9826L22.2304 14.3974L21.905 14.1282L22.0644 13.9356ZM12.7234 3.99758L12.5285 4.15425L12.3969 3.99056L12.5355 3.83268L12.7234 3.99758ZM14.9108 6.71756L14.8637 6.96309L14.7735 6.9458L14.716 6.87423L14.9108 6.71756ZM14.4353 2.04684L14.2474 1.88194L14.3475 1.76791L14.4948 1.80403L14.4353 2.04684ZM19.7177 5.27003L19.906 5.1056L20.0283 5.24572L19.9293 5.40317L19.7177 5.27003ZM18.3877 7.38388L18.5993 7.51701L18.5084 7.66155L18.3407 7.62941L18.3877 7.38388ZM6.80668 3.16808L6.63167 3.34661L6.39898 3.11851L6.67955 2.95282L6.80668 3.16808ZM13.5839 1.87627L13.6225 1.62927L14.0717 1.6995L13.7718 2.04119L13.5839 1.87627ZM12.0283 3.64866L12.2161 3.81357L12.1635 3.87352L12.0859 3.89192L12.0283 3.64866ZM8.21818 4.55175L8.27584 4.79501L8.14165 4.82682L8.04317 4.73028L8.21818 4.55175ZM11.9937 1.25006C9.85952 1.25006 7.86918 1.87614 6.19548 2.95461L5.92465 2.53432C7.67641 1.40554 9.76032 0.750061 11.9937 0.750061V1.25006ZM14.2982 1.49855C13.5558 1.33586 12.7847 1.25006 11.9937 1.25006V0.750061C12.8209 0.750061 13.6279 0.839802 14.4053 1.01014L14.2982 1.49855ZM14.3409 1.50701C14.3339 1.5048 14.3267 1.5032 14.3193 1.50223L14.3841 1.00645C14.4206 1.01122 14.4568 1.01921 14.4924 1.03054L14.3409 1.50701ZM20.228 5.09324C18.7393 3.32302 16.6922 2.03824 14.3616 1.51265L14.4716 1.0249C16.9119 1.57522 19.0538 2.92006 20.6107 4.77144L20.228 5.09324ZM20.3005 5.17147C20.2924 5.15557 20.2809 5.14136 20.266 5.12983L20.5726 4.73486C20.6467 4.7924 20.705 4.86421 20.7457 4.94373L20.3005 5.17147ZM22.7499 12.0063C22.7499 9.43344 21.8421 7.069 20.3294 5.21568L20.7168 4.89952C22.2994 6.83854 23.2499 9.31371 23.2499 12.0063H22.7499ZM21.062 17.7787C22.1303 16.1104 22.7499 14.1295 22.7499 12.0063H23.2499C23.2499 14.2282 22.6012 16.3022 21.483 18.0483L21.062 17.7787ZM21.0021 17.8844C21.0175 17.8703 21.0292 17.8523 21.0361 17.8323L21.5089 17.9948C21.4755 18.0922 21.4181 18.1809 21.3411 18.252L21.0021 17.8844ZM14.9882 22.3265C17.4613 21.6094 19.5706 20.0268 20.9634 17.9299L21.3799 18.2065C19.923 20.3999 17.7165 22.056 15.1274 22.8067L14.9882 22.3265ZM14.8863 22.3613C14.9048 22.3603 14.9231 22.3552 14.9396 22.3463L15.176 22.7869C15.0953 22.8301 15.006 22.8554 14.9146 22.8605L14.8863 22.3613ZM13.1974 22.6832C13.7571 22.6207 14.3039 22.5151 14.8344 22.3698L14.9665 22.8521C14.4111 23.0041 13.8387 23.1147 13.2529 23.1801L13.1974 22.6832ZM13.098 22.6988C13.1152 22.7006 13.1326 22.6987 13.1492 22.6935L13.3011 23.1698C13.2201 23.1956 13.1338 23.205 13.0476 23.1963L13.098 22.6988ZM11.9937 22.75C12.3496 22.75 12.7015 22.7326 13.0485 22.6988L13.0971 23.1964C12.734 23.2319 12.3659 23.25 11.9937 23.25V22.75ZM5.40337 20.4856C7.22449 21.9043 9.512 22.75 11.9937 22.75V23.25C9.39645 23.25 7.00163 22.3645 5.09609 20.8801L5.40337 20.4856ZM5.33609 20.437C5.34575 20.4477 5.35709 20.4566 5.36957 20.4634L5.12989 20.9023C5.06785 20.8684 5.01241 20.8244 4.96562 20.7728L5.33609 20.437ZM3.16089 18.1161C3.7611 18.9811 4.48499 19.7542 5.30672 20.4095L4.99498 20.8004C4.13534 20.1148 3.37807 19.3061 2.7501 18.4012L3.16089 18.1161ZM3.12101 18.0621C3.12621 18.0724 3.13277 18.082 3.14049 18.0905L2.7705 18.4268C2.7321 18.3845 2.69986 18.3375 2.67446 18.287L3.12101 18.0621ZM1.25 12.0063C1.25 14.2388 1.93434 16.314 3.10444 18.034L2.69103 18.3152C1.46647 16.5152 0.75 14.3426 0.75 12.0063H1.25ZM1.45822 9.89278C1.32168 10.5762 1.25 11.2829 1.25 12.0063H0.75C0.75 11.2498 0.824964 10.5103 0.967913 9.79481L1.45822 9.89278ZM1.47455 9.78228C1.46624 9.80022 1.46255 9.81909 1.463 9.83782L0.963139 9.84977C0.960908 9.75639 0.979544 9.66135 1.02085 9.57216L1.47455 9.78228ZM6.06611 3.03929C3.77089 4.56527 2.09273 6.94972 1.49206 9.73001L1.00334 9.62443C1.63222 6.71351 3.3886 4.21902 5.78928 2.62292L6.06611 3.03929ZM6.14975 2.97783C6.13384 2.98394 6.11875 2.99347 6.10537 3.00698L5.75002 2.65524C5.81422 2.59038 5.88963 2.54214 5.97038 2.5111L6.14975 2.97783ZM6.29972 3.79074C4.30731 5.17938 2.84198 7.27477 2.2686 9.71017L1.78191 9.59558C2.38424 7.0372 3.92297 4.83778 6.01383 3.38054L6.29972 3.79074ZM7.47881 5.2317L5.98177 3.76417L6.33178 3.40712L7.82882 4.87465L7.47881 5.2317ZM5.85089 8.5484L7.4248 4.95292L7.88283 5.15343L6.30892 8.7489L5.85089 8.5484ZM3.34337 10.3013L5.93433 8.44541L6.22548 8.85189L3.63453 10.7078L3.34337 10.3013ZM3.36322 10.7206L1.89953 9.86896L2.15098 9.43679L3.61468 10.2884L3.36322 10.7206ZM3.67877 14.8691L2.93047 11.2439L3.42014 11.1428L4.16845 14.768L3.67877 14.8691ZM2.89625 17.0553L3.687 14.7378L4.16021 14.8993L3.36946 17.2168L2.89625 17.0553ZM2.0031 12.0063C2.0031 13.8287 2.49341 15.5382 3.349 17.0104L2.9167 17.2616C2.01808 15.7154 1.5031 13.9196 1.5031 12.0063H2.0031ZM2.12012 10.4737C2.04309 10.9733 2.0031 11.4852 2.0031 12.0063H1.5031C1.5031 11.4595 1.54506 10.9223 1.62595 10.3975L2.12012 10.4737ZM1.99876 10.2196L3.30103 10.9773L3.04958 11.4095L1.74731 10.6517L1.99876 10.2196ZM3.85668 17.7969C4.38862 18.5422 5.0203 19.2117 5.73202 19.7857L5.41813 20.1749C4.6711 19.5724 4.0081 18.8697 3.44971 18.0874L3.85668 17.7969ZM4.80437 15.3426L3.8898 18.0229L3.41659 17.8614L4.33116 15.1812L4.80437 15.3426ZM7.47236 15.9559L4.53023 15.5091L4.60531 15.0147L7.54745 15.4616L7.47236 15.9559ZM9.89402 18.7872L7.32249 15.8742L7.69733 15.5433L10.2689 18.4563L9.89402 18.7872ZM9.05653 19.9867L9.8617 18.5026L10.3012 18.741L9.49602 20.2251L9.05653 19.9867ZM5.58355 19.7304L9.28475 19.856L9.2678 20.3557L5.5666 20.2302L5.58355 19.7304ZM4.38393 14.5601L3.68336 11.1665L4.17304 11.0654L4.8736 14.459L4.38393 14.5601ZM7.3978 15.1829L4.59123 14.7567L4.6663 14.2624L7.47286 14.6886L7.3978 15.1829ZM8.67225 11.7012L7.67467 15.008L7.19598 14.8636L8.19356 11.5568L8.67225 11.7012ZM6.5171 9.22122L8.61524 11.4579L8.25057 11.8L6.15243 9.5633L6.5171 9.22122ZM3.78263 10.9127L6.18919 9.18901L6.48034 9.5955L4.07377 11.3192L3.78263 10.9127ZM10.4926 18.3272L7.93505 15.4302L8.30988 15.0993L10.8675 17.9963L10.4926 18.3272ZM14.4832 17.7346L10.7241 18.4078L10.636 17.9157L14.3951 17.2425L14.4832 17.7346ZM15.6845 13.7513L14.6808 17.5524L14.1974 17.4247L15.2011 13.6236L15.6845 13.7513ZM13.3328 10.9552L15.6291 13.5207L15.2566 13.8542L12.9602 11.2887L13.3328 10.9552ZM9.10482 11.6123L13.1012 10.8761L13.1918 11.3678L9.1954 12.104L9.10482 11.6123ZM7.88311 15.1925L8.91076 11.7859L9.38945 11.9303L8.36181 15.3369L7.88311 15.1925ZM9.38233 21.1132L6.69548 21.022L6.71244 20.5223L9.39928 20.6135L9.38233 21.1132ZM11.6628 22.4615L9.26596 21.0799L9.51565 20.6467L11.9125 22.0283L11.6628 22.4615ZM6.83348 20.5583C8.28688 21.4387 9.98122 21.959 11.7926 21.9949L11.7827 22.4948C9.88073 22.4571 8.1008 21.9105 6.57444 20.986L6.83348 20.5583ZM14.6888 18.4628L10.8267 19.1544L10.7386 18.6623L14.6006 17.9706L14.6888 18.4628ZM15.9563 19.5426L14.4921 18.4147L14.7973 18.0186L16.2615 19.1465L15.9563 19.5426ZM14.4199 21.7774L15.8922 19.2198L16.3256 19.4693L14.8532 22.0268L14.4199 21.7774ZM13.1521 21.9303C13.6368 21.8743 14.111 21.7835 14.5722 21.6605L14.701 22.1437C14.2166 22.2728 13.7185 22.3682 13.2095 22.427L13.1521 21.9303ZM10.1272 20.1301L13.3057 21.9621L13.056 22.3953L9.8775 20.5633L10.1272 20.1301ZM11.0024 19.0276L10.2221 20.4659L9.78259 20.2275L10.5629 18.7891L11.0024 19.0276ZM17.0718 19.6827L15.9238 21.6769L15.4905 21.4274L16.6385 19.4333L17.0718 19.6827ZM19.9668 18.7726L16.935 19.7949L16.7752 19.3211L19.807 18.2988L19.9668 18.7726ZM15.6164 21.3192C17.2152 20.6967 18.616 19.6745 19.6946 18.3759L20.0792 18.6954C18.9473 20.0582 17.477 21.1313 15.7978 21.7851L15.6164 21.3192ZM12.7785 10.2909L14.0417 7.03792L14.5078 7.21891L13.2446 10.4718L12.7785 10.2909ZM8.94447 10.8758L12.9663 10.1355L13.0568 10.6272L9.03498 11.3675L8.94447 10.8758ZM7.01012 8.64609L9.17205 10.9506L8.8074 11.2927L6.64547 8.98819L7.01012 8.64609ZM8.60098 5.38931L7.05682 8.91738L6.59877 8.7169L8.14293 5.18883L8.60098 5.38931ZM12.145 4.65146L8.42962 5.53233L8.31428 5.04581L12.0296 4.16495L12.145 4.65146ZM14.0799 7.28508L11.8925 4.56487L12.2821 4.25154L14.4695 6.97175L14.0799 7.28508ZM18.1878 8.36675L14.8952 7.73585L14.9893 7.24478L18.2819 7.87568L18.1878 8.36675ZM18.5125 11.844L17.9873 8.15647L18.4823 8.08597L19.0075 11.7735L18.5125 11.844ZM15.8461 12.9012L18.6537 11.5824L18.8663 12.035L16.0587 13.3538L15.8461 12.9012ZM13.9074 10.468L16.1387 12.9608L15.7661 13.2943L13.5348 10.8015L13.9074 10.468ZM15.1753 7.58082L13.9541 10.7252L13.488 10.5442L14.7092 7.39981L15.1753 7.58082ZM19.2218 12.6996L16.2841 14.0796L16.0716 13.627L19.0092 12.247L19.2218 12.6996ZM21.7128 14.9464L18.9562 12.6659L19.2749 12.2807L22.0315 14.5611L21.7128 14.9464ZM20.4439 17.3481C20.9623 16.5328 21.3658 15.638 21.6314 14.6865L22.113 14.821C21.8339 15.8206 21.4101 16.7605 20.8658 17.6164L20.4439 17.3481ZM16.59 18.5891L20.5749 17.2453L20.7347 17.7191L16.7497 19.0629L16.59 18.5891ZM15.3227 17.4727L16.8224 18.628L16.5173 19.0241L15.0175 17.8688L15.3227 17.4727ZM16.4196 13.9171L15.4118 17.7346L14.9284 17.607L15.9361 13.7895L16.4196 13.9171ZM20.4182 5.73993C21.7233 7.4902 22.4968 9.6598 22.4968 12.0063H21.9968C21.9968 9.77145 21.2605 7.70596 20.0174 6.03882L20.4182 5.73993ZM18.7501 7.75231L20.0062 5.75623L20.4294 6.02252L19.1733 8.0186L18.7501 7.75231ZM19.2767 11.8695L18.7142 7.92072L19.2092 7.8502L19.7717 11.7989L19.2767 11.8695ZM21.905 14.1282L19.3649 12.0268L19.6836 11.6416L22.2237 13.7429L21.905 14.1282ZM22.4968 12.0063C22.4968 12.6815 22.4326 13.3422 22.3099 13.9826L21.8189 13.8885C21.9357 13.279 21.9968 12.6498 21.9968 12.0063H22.4968ZM12.9182 3.8409L15.1056 6.56088L14.716 6.87423L12.5285 4.15425L12.9182 3.8409ZM14.6232 2.21174L12.9113 4.16248L12.5355 3.83268L14.2474 1.88194L14.6232 2.21174ZM19.5293 5.43447C18.1953 3.90678 16.4059 2.78736 14.3758 2.28965L14.4948 1.80403C16.6277 2.32692 18.5062 3.50257 19.906 5.1056L19.5293 5.43447ZM18.1761 7.25075L19.5061 5.1369L19.9293 5.40317L18.5993 7.51701L18.1761 7.25075ZM14.9578 6.47202L18.4348 7.13835L18.3407 7.62941L14.8637 6.96309L14.9578 6.47202ZM11.9937 2.00317C10.1482 2.00317 8.41858 2.50653 6.9338 3.38335L6.67955 2.95282C8.239 2.03189 10.0561 1.50317 11.9937 1.50317V2.00317ZM13.5453 2.12327C13.0396 2.04423 12.5215 2.00317 11.9937 2.00317V1.50317C12.5474 1.50317 13.0914 1.54625 13.6225 1.62927L13.5453 2.12327ZM11.8404 3.48374L13.396 1.71136L13.7718 2.04119L12.2161 3.81357L11.8404 3.48374ZM8.16052 4.30849L11.9706 3.4054L12.0859 3.89192L8.27584 4.79501L8.16052 4.30849ZM6.98168 2.98956L8.39319 4.37322L8.04317 4.73028L6.63167 3.34661L6.98168 2.98956Z" fill="white"/>
</svg>
