<svg width="24" height="24" viewBox="0 0 24 24" fill="none" xmlns="http://www.w3.org/2000/svg">
<path d="M22.8515 6.85194C21.9291 4.9108 20.5021 3.25284 18.7196 2.05125C16.9371 0.849665 14.8644 0.148539 12.7181 0.0211173C10.5719 -0.106304 8.43076 0.344655 6.51845 1.32689C4.60614 2.30912 2.99281 3.78658 1.847 5.60492C0.701186 7.42327 0.0649356 9.51579 0.00471193 11.6639C-0.0555118 13.812 0.462501 15.9368 1.50464 17.8164C2.54677 19.6961 4.07479 21.2615 5.92907 22.3492C7.78334 23.4369 9.89584 24.007 12.0459 23.9999C13.8231 23.9888 15.5752 23.5787 17.1725 22.7999C20.0359 21.4317 22.2408 18.9858 23.305 15.9973C24.3692 13.0088 24.2061 9.72066 22.8515 6.85194ZM20.6784 7.87194C21.6121 9.83887 21.8492 12.0646 21.3507 14.1839C19.398 13.2303 17.8266 11.643 16.8933 9.68137C15.9599 7.71971 15.7198 5.49966 16.212 3.38394C18.1859 4.31595 19.7766 5.90156 20.7144 7.87194H20.6784ZM3.37738 16.1279C2.44365 14.161 2.20657 11.9353 2.70503 9.81594C4.65771 10.7695 6.22911 12.3568 7.16247 14.3185C8.09583 16.2802 8.33599 18.5002 7.8437 20.6159C5.88154 19.6796 4.30362 18.0941 3.37738 16.1279ZM16.176 20.6639C14.3064 21.5495 12.1991 21.8022 10.1729 21.3839C10.8609 18.6741 10.5806 15.8092 9.3805 13.2839C8.17074 10.7514 6.10387 8.72816 3.54546 7.57194C4.49255 5.71508 6.02974 4.22512 7.91574 3.33594C9.20482 2.71838 10.6164 2.39848 12.0459 2.39994C12.6955 2.41183 13.3427 2.48414 13.9789 2.61594C13.2965 5.32366 13.5802 8.18448 14.7811 10.7056C15.9821 13.2268 18.0251 15.2504 20.5583 16.4279C19.6082 18.2867 18.0665 19.7769 16.176 20.6639Z" fill="white"/>
</svg>
