<svg width="24" height="24" viewBox="0 0 24 24" fill="none" xmlns="http://www.w3.org/2000/svg">
<path d="M22.3103 5.88661C22.2851 5.84468 22.2568 5.8046 22.2258 5.76665C20.6645 3.21311 18.2003 1.33055 15.3156 0.487447C12.4309 -0.355654 9.33339 -0.0985938 6.62939 1.20831H6.54489C4.67931 2.16298 3.09638 3.58441 1.95223 5.3324C0.808086 7.0804 0.142243 9.09458 0.0203769 11.1763C-0.101489 13.258 0.324831 15.3353 1.25729 17.2033C2.18975 19.0714 3.59614 20.6656 5.33774 21.8288L5.7361 22.0687L5.85681 22.1527C7.68038 23.3017 9.78244 23.94 11.9409 24H12.1944C14.3025 23.9538 16.3616 23.3598 18.1668 22.2769C19.972 21.1941 21.4603 19.6603 22.4835 17.8282C23.5067 15.996 24.0291 13.9296 23.9987 11.8344C23.9684 9.73933 23.3862 7.68866 22.3103 5.88661ZM20.391 7.2781C20.7134 7.83302 20.9764 8.42002 21.1756 9.02946C20.0057 8.65129 18.7844 8.45307 17.5542 8.44167C17.4306 8.41773 17.3035 8.41773 17.1799 8.44167C15.6968 8.46121 14.2307 8.75829 12.8583 9.31736C12.0218 8.79646 11.2724 8.14888 10.6372 7.39805C12.1126 6.5383 13.7878 6.07512 15.4981 6.05408C17.2083 6.03305 18.8946 6.4549 20.391 7.2781ZM11.9409 2.40787C13.6369 2.39917 15.3043 2.84239 16.7695 3.69141C16.3694 3.63763 15.9661 3.60958 15.5623 3.60744C13.3467 3.61165 11.175 4.22171 9.28514 5.37079C8.92859 4.63107 8.66895 3.84898 8.51256 3.04364C9.60644 2.62464 10.7685 2.40914 11.9409 2.40787ZM4.69794 5.65869C5.17966 5.12664 5.71798 4.64802 6.30346 4.23121C6.70653 5.76045 7.41279 7.19433 8.38083 8.44878C9.34887 9.70323 10.5592 10.753 11.9409 11.5365C11.8548 12.7364 11.5393 13.9089 11.0114 14.9913C9.16199 14.313 7.56579 13.0886 6.4372 11.4825C5.3086 9.87634 4.70167 7.96548 4.69794 6.00656C4.69794 5.88661 4.69794 5.77864 4.69794 5.65869ZM2.28363 12.0044C2.28579 11.0405 2.43225 10.0824 2.71821 9.16141C3.19545 10.903 4.06204 12.5151 5.2534 13.8776C6.44477 15.2401 7.9302 16.3178 9.599 17.0305C8.63822 18.1493 7.4268 19.0285 6.06203 19.5976C4.88953 18.7036 3.93915 17.5541 3.28409 16.2377C2.62903 14.9212 2.28675 13.473 2.28363 12.0044ZM11.7719 21.6009C10.6956 21.5854 9.62989 21.3865 8.6212 21.0131C10.2046 20.0433 11.5394 18.7209 12.5203 17.1505C13.6319 15.3901 14.2642 13.3729 14.3552 11.2966C15.0518 11.0691 15.7731 10.9241 16.5039 10.8648C17.0196 12.9224 16.835 15.0918 15.9789 17.0341C15.1228 18.9764 13.6434 20.5823 11.7719 21.6009ZM16.8661 20.2574C18.3739 18.211 19.1858 15.7402 19.1838 13.2039C19.1785 12.4473 19.1058 11.6926 18.9665 10.9488C19.8743 11.1082 20.7557 11.3907 21.5861 11.7885C21.5861 11.8604 21.5861 11.9324 21.5861 12.0044C21.5849 13.6666 21.1493 15.3 20.3219 16.7446C19.4945 18.1893 18.3037 19.3956 16.8661 20.2454V20.2574Z" fill="white"/>
</svg>
