<svg width="125" height="132" viewBox="0 0 125 132" fill="none" xmlns="http://www.w3.org/2000/svg">
<path d="M121.857 47.3433C118.634 35.4667 112.755 24.4465 104.651 15.0853C96.5462 5.72411 86.4193 -1.74229 75.0079 -6.77005C63.5965 -11.7978 51.1879 -14.2603 38.6859 -13.9782C26.1838 -13.6961 13.9032 -10.6765 2.73854 -5.13938L1.96777 -4.795C-9.24935 0.924885 -19.0186 9.04476 -26.6207 18.9668C-26.8425 19.1925 -27.0312 19.4475 -27.1813 19.7245C-36.827 32.5227 -42.4735 47.8044 -43.4316 63.7041C-44.3897 79.6038 -40.6179 95.4338 -32.5767 109.262C-32.4124 109.724 -32.1496 110.147 -31.8059 110.502C-24.314 122.792 -13.7178 132.97 -1.04523 140.049C9.88931 146.324 22.1342 150.069 34.7605 151H35.251C37.0027 151 38.7545 151 40.5062 151C55.1187 150.976 69.4727 147.21 82.1531 140.072C94.8335 132.934 105.403 122.671 112.818 110.295C113.196 109.927 113.484 109.48 113.659 108.986C124.542 90.1755 127.486 67.9196 121.857 46.9989V47.3433ZM110.086 35.7034L109.525 35.3591C107.633 33.9816 105.671 32.5352 103.639 31.2266L102.448 30.4689C100.206 29.0455 97.8701 27.6451 95.441 26.2676L93.8995 25.4411C91.5171 24.1325 89.0647 22.8238 86.4721 21.653H86.0517C83.389 20.4132 80.6563 19.1735 77.8535 18.0026L76.0317 16.9695C73.2289 15.8675 70.4261 14.7655 67.5532 13.8012L66.2219 13.2502L58.1638 10.7018L56.6223 10.2197C53.6794 9.43914 50.8065 8.70448 48.0037 8.01573L46.0417 7.60248C42.9587 6.91373 39.8756 6.29386 36.7925 5.81173C37.6251 3.46743 38.5841 1.16834 39.6654 -1.07576C40.0157 -1.83338 40.4361 -2.59101 40.8566 -3.27975C41.277 -3.9685 42.1879 -5.69038 42.8886 -6.93012C56.9853 -6.5462 70.7047 -2.36816 82.5531 5.1491C94.4014 12.6663 103.925 23.2347 110.086 35.7034ZM6.94274 0.370614C15.5482 -3.75499 24.8656 -6.25488 34.4101 -6.999C33.9197 -6.03475 33.5693 -5.0705 33.0788 -4.10625L31.9577 -1.62676C30.6628 1.37822 29.5628 4.4608 28.6644 7.60248C21.6574 31.8464 24.9507 58.3633 36.7225 69.5899C33.8921 77.2507 28.6363 83.817 21.7275 88.3238C5.96175 57.7434 1.68749 20.551 6.94274 0.370614ZM-21.0852 22.755C-15.518 15.7024 -8.73523 9.66472 -1.04523 4.91636C-4.01757 35.0673 1.86726 65.4238 15.9117 92.3875C9.62044 96.1785 2.86242 99.1642 -4.19838 101.272C-18.0722 73.7913 -24.9391 41.3512 -20.8049 22.755H-21.0852ZM-36.5707 68.3501C-36.5872 57.0758 -34.0249 45.942 -29.0732 35.7723C-27.8427 59.0851 -21.7364 81.8982 -11.1353 102.788C-16.4063 103.914 -21.7872 104.468 -27.1813 104.441C-33.3376 93.3736 -36.5663 80.9635 -36.5707 68.3501ZM-22.907 111.259C9.11491 109.744 38.5443 89.4947 43.4492 71.1051C51.3344 69.6664 59.4807 70.7277 66.7124 74.1356C58.9346 93.0073 31.6774 119.869 0.846653 133.161C-8.53779 127.655 -16.6325 120.262 -22.907 111.466V111.259ZM33.9897 144.113C25.2168 143.269 16.6587 140.938 8.69448 137.225C39.0348 122.692 64.7504 95.9001 73.0887 77.0973C79.2085 80.3835 84.902 84.3843 90.0456 89.0126C83.6693 106.576 59.8455 130.338 33.9897 144.113ZM48.0037 144.113C69.7254 130.338 88.2939 110.639 95.441 94.1782C99.5523 98.3404 103.151 102.964 106.162 107.953C99.9803 117.997 91.5089 126.492 81.4161 132.767C71.3232 139.042 59.885 142.926 48.0037 144.113ZM110.086 101.135C92.7083 74.6177 60.1258 59.8096 41.4872 64.8375C35.0789 57.0602 31.7003 47.2925 31.9577 37.2876C67.8335 42.4532 103.149 62.2203 116.812 78.6125C115.772 86.3732 113.502 93.9261 110.086 100.997V101.135ZM117.583 69.4521C93.5909 48.356 63.7645 34.7399 31.8876 30.3312C32.1306 24.2865 33.0231 18.2839 34.5503 12.4237C46.7709 14.475 58.7453 17.7522 70.2859 22.204L75.8214 24.408L81.0767 26.7497L86.1217 29.2292C91.8821 32.1176 97.4103 35.4332 102.658 39.1472L104.41 40.3869L106.232 41.8333L108.264 43.4863L109.805 44.8638L111.697 46.5857L113.029 47.9632L114.43 49.4784C116.288 55.6128 117.347 61.9539 117.583 68.3501C117.583 68.3501 117.583 69.0389 117.583 69.3144V69.4521Z" fill="white" fill-opacity="0.25"/>
</svg>
