<svg width="24" height="24" viewBox="0 0 24 24" fill="none" xmlns="http://www.w3.org/2000/svg"><path d="M17.601 8.632V5.6A5.6 5.6 0 0012 0a5.602 5.602 0 00-5.601 5.6v3.032l-6.33 14.24a.8.8 0 001.056 1.056l6.754-3 3.617 2.896a.8.8 0 001 0l3.625-2.896 6.754 3a.8.8 0 001.056-1.056l-6.33-14.24zM8 8v-.8h8.002V8H7.999zM12 1.6a4.001 4.001 0 014.001 4H7.999A4 4 0 0112 1.6zm-4.281 8h1.688l-2.104 9.832-4.905 2.169 5.32-12zM12 22.177L8.887 19.68l2.16-10.08h1.905l2.16 10.08L12 22.177zm4.697-2.745L14.593 9.6h1.688l5.321 12-4.905-2.168z" fill="#fff"/></svg>