<svg width="26" height="24" viewBox="0 0 26 24" fill="none" xmlns="http://www.w3.org/2000/svg"><path d="M23.46 9.762c-.347.05-.694.248-.843.595-.892-4.81-4.908-8.429-9.718-8.429-4.809 0-8.825 3.62-9.717 8.429-.15-.347-.496-.545-.843-.595-.744 0-1.339 1.19-1.339 2.677 0 1.488.595 2.678 1.339 2.678.347-.05.694-.248.843-.595C4.074 19.38 8.09 23 12.899 23c4.81 0 8.826-3.62 9.718-8.478.149.347.447.545.843.595.744 0 1.339-1.19 1.339-2.678 0-1.487-.595-2.677-1.339-2.677z" stroke="#fff" stroke-width="2" stroke-linecap="round" stroke-linejoin="round"/><path d="M12.651 1.928s1.934 1.438 2.132 3.719v.248c-.1 1.14-1.09 1.983-2.231 1.933-1.041-.05-1.835-.892-1.934-1.933 0-.546.199-1.042.595-1.389m-.892 11.602c1.636.744 3.52.744 5.206 0" stroke="#fff" stroke-width="2" stroke-linecap="round" stroke-linejoin="round"/><path d="M12.9 16.654c-.943 0-1.786.744-1.786 1.735 0 .942.744 1.785 1.736 1.785.991 0 1.784-.744 1.784-1.735v-.05c0-.942-.793-1.735-1.735-1.735zM15.924 11.596h.694M9.181 11.596h.744M15.924 2.375a4.042 4.042 0 01.991 4.164" stroke="#fff" stroke-width="2" stroke-linecap="round" stroke-linejoin="round"/></svg>