<svg width="123" height="132" viewBox="0 0 123 132" fill="none" xmlns="http://www.w3.org/2000/svg"><path d="M82.97-16C37.373-16 .375 20.507.375 65.5S37.373 147 82.97 147s82.594-36.507 82.594-81.5S128.567-16 82.97-16zm73.795 111.495c-1.2 0-2.8-.592-2.999-1.776-.2-.591.199-2.367.599-3.55.401-2.172 1.401-4.146 2.001-6.118.6-1.579 1-3.75 2.8-3.946 1.199-.197 1.6.788 2.399.591-.001 1.972-4.4 14.01-4.8 14.8zm-8-49.926c-.8.789-2.2 1.579-4 .987-1.6-.395-2.999-1.974-3.999-3.551-1.401-2.171-2.999-3.947-3.2-6.908-.2-3.551.6-6.709 3.399-7.104 3.599-.592 6 3.75 7.6 6.117.8 1.184 1.401 2.566 1.6 3.355.8 2.762 0 5.722-1.4 7.104zM92.168 15.573c3.4-.395 7.8.592 10.4 1.776 2.6 1.184 6.4 4.737 7 8.683.401 3.75-2 5.92-4.399 7.104-2.001.987-4.201 1.58-7.2 1.383-4-.197-9.2-3.355-11.199-6.908-1.4-2.17-2-5.92-.4-8.485.999-1.777 2.999-3.157 5.798-3.553zm-4-25.259c0-1.775 1.8-2.565 3.598-2.762 3.6-.395 8 .789 10.6 2.17 1 .396 2 1.383 2 2.171 0 1.184-1 1.58-1.6 2.171-2.399.197-4.6-.592-7-.789-1.8-.196-3.8.197-5.2-.395-.998-.395-2.198-1.579-2.398-2.566zm-1.6 73.804c1.2-.788 2.6-1.183 4.599-1.382 4.4-.395 7.8 1.184 9.999 3.947 1 1.183 2.6 4.144 2.8 6.117.6 5.722-4.2 10.459-7.999 12.037-3.599 1.58-8.4.592-11-1.579-2.399-1.974-4.599-5.13-4.599-9.274 0-4.142 3.2-7.892 6.2-9.866zm19.199 53.479c2.399-3.158 6.4-5.526 11.4-6.118.6 0 2.399-.196 3.399 0 1.8.395 3.6 2.171 3.801 3.552.4 2.171-1.001 3.946-2.001 4.933-2.2 2.566-6.4 4.934-10.798 6.117-1.601.395-3.6.987-5 .592-1.2-.197-2.6-1.776-2.8-2.762-.601-1.973.999-4.932 1.999-6.314zm-57.596-15.393c3.4-.395 7.2 1.184 9.599 3.158 2 1.579 4.2 4.341 5 6.709.799 3.158-.6 6.316-3.4 7.104-3 .789-7.4-.987-9.2-1.974-2.6-1.184-5.4-3.551-7.2-6.117-.6-.789-1.2-1.974-1.2-3.158.002-2.959 3.202-5.327 6.4-5.722zm-6.8-67.686c-1.4-.197-3.2-1.974-3.599-2.763-1.6-2.762-.4-7.893 1.2-10.064 2.4-3.157 6.6-5.525 11.799-5.722 1.2 0 2.6.197 3.599 1.382 2.2 2.171 1.2 7.301-.2 10.064-1.6 2.566-5.4 5.92-8.399 6.908-1.6.393-3.4.59-4.4.195zm-27.198 42.23c-1.6 0-2.8-2.17-3.4-4.145-.799-2.566-1.799-5.722-1.4-9.472.2-3.157 1.2-6.315 4-6.709 2.999 1.776 4.2 5.526 4.599 10.459.2 3.355-.798 9.867-3.799 9.867z" fill="#fff" fill-opacity=".25"/></svg>