<svg width="25" height="24" viewBox="0 0 25 24" fill="none" xmlns="http://www.w3.org/2000/svg"><path d="M12.5 0C5.6 0 0 5.375 0 12s5.6 12 12.5 12S25 18.625 25 12 19.4 0 12.5 0zm11.168 16.416c-.181 0-.423-.087-.454-.261-.03-.087.03-.349.091-.523.06-.32.212-.61.303-.9.09-.233.151-.553.424-.582.181-.029.242.117.363.088 0 .29-.666 2.062-.727 2.178zm-1.21-7.35a.591.591 0 01-.606.145c-.242-.058-.454-.29-.605-.523-.212-.32-.454-.581-.484-1.017-.03-.523.09-.988.514-1.046.545-.087.908.552 1.15.9.121.175.212.378.242.494.122.407 0 .843-.212 1.046zm-8.566-4.417c.515-.058 1.18.087 1.574.261.394.175.969.698 1.06 1.279.06.552-.303.872-.666 1.046a2.082 2.082 0 01-1.09.203c-.605-.029-1.392-.494-1.695-1.017-.212-.32-.303-.871-.06-1.249.15-.262.453-.465.877-.523zm-.605-3.72c0-.26.272-.377.544-.406.545-.058 1.21.116 1.604.32.152.058.303.203.303.32 0 .174-.151.232-.242.319-.363.029-.696-.087-1.06-.116-.272-.03-.575.029-.786-.058-.151-.059-.333-.233-.363-.378zm-.243 10.868c.182-.117.394-.175.697-.204.665-.058 1.18.174 1.513.581.151.174.393.61.424.9.09.843-.636 1.54-1.21 1.773-.546.233-1.272.087-1.666-.232-.363-.29-.696-.756-.696-1.366 0-.61.485-1.162.938-1.452zm2.906 7.874c.363-.465.969-.814 1.726-.901.09 0 .363-.029.514 0 .272.058.545.32.575.523.06.32-.151.58-.303.726-.333.378-.968.727-1.634.9-.242.06-.545.146-.757.088-.181-.029-.393-.261-.423-.407-.091-.29.15-.726.302-.93zm-8.717-2.267c.515-.058 1.09.175 1.453.465.303.233.636.64.757.988.12.465-.09.93-.515 1.046-.454.116-1.12-.145-1.392-.29a2.89 2.89 0 01-1.09-.901.805.805 0 01-.181-.465c0-.436.484-.785.968-.843zM6.204 7.438c-.212-.029-.484-.29-.544-.407-.242-.406-.06-1.162.181-1.481.363-.465 1-.814 1.786-.843.182 0 .394.03.545.204.333.32.181 1.075-.03 1.481-.243.378-.818.872-1.272 1.017-.242.058-.514.087-.666.03zm-4.116 6.218c-.242 0-.423-.32-.514-.61-.121-.378-.273-.843-.212-1.395.03-.465.181-.93.605-.988.454.262.636.814.696 1.54.03.494-.12 1.453-.575 1.453z" fill="#fff"/></svg>