<svg width="22" height="22" viewBox="0 0 22 22" fill="none" xmlns="http://www.w3.org/2000/svg"><path d="M7.477 10.018L11 7.464l3.523 2.554-1.338 4.125H8.827l-1.35-4.125zM11 0c1.49 0 2.914.29 4.272.872 1.359.58 2.53 1.362 3.511 2.345.983.982 1.764 2.152 2.345 3.51C21.71 8.088 22 9.51 22 11c0 1.49-.29 2.914-.872 4.272-.58 1.359-1.362 2.53-2.345 3.511-.982.983-2.152 1.764-3.51 2.345A10.753 10.753 0 0111 22c-1.49 0-2.914-.29-4.272-.872-1.359-.58-2.53-1.362-3.511-2.345-.983-.982-1.764-2.152-2.345-3.51A10.753 10.753 0 010 11c0-1.49.29-2.914.872-4.272.58-1.359 1.362-2.53 2.345-3.511.982-.983 2.152-1.764 3.51-2.345A10.753 10.753 0 0111 0zm7.6 16.574c1.219-1.662 1.829-3.52 1.829-5.574v-.037l-1.253 1.093-2.946-2.75.773-3.966 1.645.148c-1.227-1.686-2.82-2.84-4.775-3.462l.65 1.522L11 5.5 7.477 3.548l.65-1.522c-1.956.622-3.548 1.776-4.775 3.462l1.657-.148.761 3.966-2.946 2.75-1.253-1.093V11c0 2.054.61 3.912 1.83 5.574l.368-1.62 4.002.49 1.707 3.659-1.424.847c.957.319 1.94.479 2.946.479 1.007 0 1.989-.16 2.946-.48l-1.424-.846 1.707-3.659 4.002-.49.368 1.62z" fill="#fff"/></svg>