<svg width="24" height="24" viewBox="0 0 24 24" fill="none" xmlns="http://www.w3.org/2000/svg"><path fill-rule="evenodd" clip-rule="evenodd" d="M6.06 2.744A10.92 10.92 0 0111.994 1a11.007 11.007 0 012.423.269 11.02 11.02 0 016.002 3.663c.045.035.08.078.104.126A10.955 10.955 0 0123 12.006c0 2.173-.634 4.2-1.727 5.907a.378.378 0 01-.101.155 11.05 11.05 0 01-6.114 4.499.38.38 0 01-.158.044c-.543.149-1.102.257-1.675.32a.376.376 0 01-.152.017c-.355.034-.715.052-1.08.052-2.539 0-4.88-.866-6.743-2.317a.378.378 0 01-.1-.078 11.086 11.086 0 01-2.195-2.346.378.378 0 01-.057-.084A10.931 10.931 0 011 12.006c0-.74.073-1.463.213-2.162a.374.374 0 01.035-.167 11.037 11.037 0 014.68-6.846.375.375 0 01.132-.087zM2.025 9.653a10.282 10.282 0 014.132-6.067l1.497 1.467L6.08 8.65l-2.591 1.856-1.464-.852zm1.15 1.54l.749 3.626-.791 2.317a10.178 10.178 0 01-1.38-5.13c0-.534.041-1.058.12-1.57l1.302.757zm2.4 8.787a10.33 10.33 0 01-1.922-2.038l.915-2.68 2.942.447 2.571 2.913-.805 1.484-3.7-.126zm-1.647-8.864l.7 3.394 2.807.426.998-3.307-2.098-2.237-2.407 1.724zm4.194 4.149l2.558 2.897 3.76-.673 1.003-3.802-2.296-2.565-3.997.736-1.028 3.407zm-1.418 5.507l2.687.091 2.397 1.382a10.177 10.177 0 01-5.084-1.473zm4.079-1.864l3.862-.691 1.464 1.128-1.472 2.557c-.473.126-.96.22-1.456.277l-3.179-1.832.78-1.439zm4.924 2.644l1.148-1.994 3.032-1.022a10.299 10.299 0 01-4.18 3.016zM14.275 7.128l-1.263 3.253-4.022.74-2.162-2.304L8.372 5.29l3.715-.88 2.188 2.72zm.667.362l3.293.631.525 3.688-2.808 1.319-2.23-2.493 1.22-3.145zm1.236 6.363l2.938-1.38 2.756 2.28a10.188 10.188 0 01-1.217 2.73l-3.985 1.343-1.5-1.155 1.008-3.818zm6.069-1.847a10.2 10.2 0 00-2.03-6.117l-1.255 1.996.562 3.95 2.54 2.1c.12-.624.183-1.27.183-1.929zM14.91 6.718l-2.188-2.72 1.712-1.951a10.266 10.266 0 015.283 3.223l-1.33 2.114-3.477-.666zm-8.104-3.55a10.17 10.17 0 015.187-1.415c.54 0 1.072.042 1.59.123L12.028 3.65l-3.81.903-1.411-1.384z" fill="#fff"/><path d="M6.06 2.744l.135.21-.021.015-.024.009-.09-.234zm8.292-1.49l-.033.248-.01-.001-.01-.002.053-.245zm.065.015l-.055.244-.01-.003-.011-.003.076-.238zm6.002 3.663l-.153.198-.02-.016-.018-.02.191-.162zm.104.126l-.194.158-.016-.02-.012-.025.222-.113zm.75 12.855l-.237-.08.01-.03.016-.024.21.134zm-.101.155l-.209-.138.017-.025.022-.02.17.183zm-6.114 4.499l-.118-.22.023-.013.025-.008.07.24zm-.158.044l-.066-.241.026-.007.026-.002.014.25zm-1.675.32l-.076-.238.024-.007.024-.003.028.249zm-.152.017l-.024-.25.024-.002.025.003-.025.249zM5.25 20.683l.12-.22.017.01.016.013-.153.197zm-.1-.078l.157-.195.016.012.013.015-.185.168zm-2.195-2.346l.185-.169.012.013.009.013-.206.143zm-.057-.084l.206-.141.01.014.007.014-.223.113zM1.213 9.844l.25-.006v.028l-.005.027-.245-.05zm.035-.167l.244.053-.006.027-.011.025-.227-.105zm4.68-6.846l.177.176-.018.018-.02.014-.14-.208zm.229.755l-.143-.205.17-.119.148.145-.175.179zM2.025 9.653l-.125.216-.16-.093.042-.18.243.057zm5.629-4.6l.175-.178.123.12-.07.158-.228-.1zM6.08 8.65l.229.1-.028.063-.056.04-.145-.203zm-2.591 1.856l.146.203-.132.094-.14-.081.126-.216zm.435 4.313l.244-.05.014.067-.022.064-.236-.08zm-.749-3.625l.126-.216.097.056.022.11-.245.05zm-.042 5.943l.236.08-.177.52-.275-.474.216-.126zm-1.26-6.7l-.247-.038.056-.363.317.185-.126.216zm1.78 7.506l-.203.145-.075-.104.042-.122.236.081zm1.922 2.038l-.008.25-.084-.003-.065-.052.157-.195zm-1.007-4.718l-.237-.08.068-.199.206.032-.037.247zm2.942.447l.037-.247.09.013.06.068-.187.166zm2.571 2.913l.188-.166.115.131-.083.154-.22-.12zm-.805 1.484l.22.12-.074.135-.154-.005.008-.25zM4.63 14.51l-.038.247-.172-.026-.035-.17.245-.051zm-.7-3.394l-.246.05-.032-.159.132-.094.145.203zm3.506 3.82l.24.072-.063.208-.214-.033.037-.247zm.998-3.307l.182-.171.099.105-.042.138-.24-.072zM6.335 9.392l-.146-.203.178-.128.15.16-.182.171zm4.345 8.77l.044.246-.138.025-.093-.106.187-.165zm-2.558-2.897l-.187.165-.092-.104.04-.133.24.072zm6.317 2.224l.242.063-.04.154-.158.029-.044-.246zm1.004-3.802l.186-.166.09.1-.034.13-.242-.063zm-2.296-2.565l-.046-.246.138-.025.094.104-.187.167zm-3.997.736l-.24-.072.045-.146.15-.028.045.246zm.24 9.005l.01-.25.062.003.054.03-.125.217zm-2.686-.09l-.13.213-.819-.496.957.032-.008.25zm5.084 1.472l.124-.217-.13.467.006-.25zm2.857-4.028l-.044-.246.109-.02.087.068-.152.198zm-3.862.691l-.22-.119.057-.106.119-.02.044.245zm5.326.437l.152-.198.174.133-.11.19-.216-.125zm-1.472 2.557l.216.125-.052.09-.1.027-.064-.242zm-1.456.277l.029.248-.083.01-.071-.042.125-.216zm-3.179-1.832l-.125.216-.21-.121.116-.215.22.12zm6.853-.789l-.216-.125.047-.082.09-.03.08.237zm-1.148 1.994l.09.233-.66.258.354-.616.216.125zm4.18-3.016l-.08-.237.836-.282-.564.678-.192-.16zm-6.875-8.155l.233.09-.05.131-.138.025-.045-.246zm1.263-3.253l.194-.156.091.112-.052.135-.233-.09zM8.99 11.122l.045.245-.134.025-.094-.1.183-.17zM6.828 8.817l-.183.171-.112-.12.066-.151.229.1zM8.372 5.29l-.23-.1.05-.114.122-.03.058.244zm3.715-.88l-.057-.244.153-.036.1.123-.196.156zm6.148 3.712l.047-.245.175.033.025.177-.247.035zm-3.293-.63L14.71 7.4l.076-.194.204.039-.047.245zm3.818 4.318l.247-.035.027.182-.168.079-.106-.226zm-2.808 1.319l.107.226-.169.079-.124-.139.186-.167zm-2.23-2.493l-.187.167-.103-.115.056-.143.233.09zm5.394 1.838l-.107-.226.144-.067.122.1-.16.193zm-2.938 1.38l-.242-.063.03-.113.106-.05.106.226zm5.694.9l.16-.192.125.104-.044.156-.24-.067zm-1.217 2.73l.21.133-.047.075-.083.028-.08-.237zm-3.985 1.343l.08.237-.127.043-.106-.082.153-.198zm-1.5-1.155l-.152.198-.132-.102.042-.16.242.064zm5.048-11.782l-.212-.133.194-.308.218.292-.2.15zm-1.256 1.996l-.248.036-.013-.091.05-.078.21.133zm.562 3.95l-.16.192-.074-.062-.013-.095.247-.036zm2.54 2.1l.246.048-.08.414-.325-.269.16-.192zm-9.34-9.937l-.196.156-.131-.163.139-.158.187.165zm2.187 2.72l-.047.245-.09-.017-.058-.072.195-.156zm-.476-4.671l-.188-.165.1-.114.148.036-.06.243zm5.283 3.223l.188-.164.122.14-.099.157-.211-.133zm-1.33 2.114l.211.133-.09.145-.168-.033.047-.245zM6.807 3.168l-.175.179-.233-.228.28-.166.128.215zm6.777-1.292l.039-.247.449.07-.3.342-.188-.165zM12.028 3.65l.188.165-.052.06-.078.018-.058-.243zm-3.81.903l.058.243-.134.032-.099-.097.175-.178zm3.776-3.302a10.67 10.67 0 00-5.799 1.705l-.27-.42A11.17 11.17 0 0111.994.75v.5zm2.304.249a10.756 10.756 0 00-2.304-.249v-.5c.827 0 1.634.09 2.411.26l-.107.489zm.043.008a.126.126 0 00-.022-.005l.065-.496a.623.623 0 01.108.025l-.151.476zm5.887 3.586a10.77 10.77 0 00-5.866-3.58l.11-.488A11.27 11.27 0 0120.61 4.77l-.383.322zm.072.078a.123.123 0 00-.034-.041l.307-.395c.074.057.132.13.173.209l-.445.227zm2.45 6.835c0-2.573-.908-4.937-2.42-6.79l.387-.316a11.205 11.205 0 012.533 7.106h-.5zm-1.688 5.773a10.67 10.67 0 001.688-5.773h.5c0 2.222-.649 4.296-1.767 6.042l-.421-.27zm-.06.105a.127.127 0 00.034-.052l.473.163a.627.627 0 01-.168.257l-.339-.368zm-6.014 4.442a10.801 10.801 0 005.975-4.396l.417.276a11.3 11.3 0 01-6.253 4.6l-.139-.48zm-.102.035a.127.127 0 00.054-.015l.236.44a.629.629 0 01-.261.074l-.029-.499zm-1.689.322c.56-.062 1.107-.168 1.637-.313l.133.482c-.556.152-1.128.263-1.714.328l-.056-.497zm-.099.016c.017.002.035 0 .051-.006l.152.477a.628.628 0 01-.253.026l.05-.497zm-1.104.051c.356 0 .707-.017 1.055-.051l.048.497c-.363.036-.731.054-1.103.054v-.5zm-6.59-2.264a10.69 10.69 0 006.59 2.264v.5a11.19 11.19 0 01-6.898-2.37l.307-.394zm-.068-.049c.01.01.021.02.034.026l-.24.44a.63.63 0 01-.164-.13l.37-.336zm-2.175-2.32c.6.864 1.324 1.637 2.146 2.293l-.312.39a11.34 11.34 0 01-2.245-2.399l.41-.285zm-.04-.055c.005.01.012.02.02.028l-.37.337a.627.627 0 01-.097-.14l.447-.225zM1.25 12.006c0 2.233.684 4.308 1.854 6.028l-.413.281A11.181 11.181 0 01.75 12.006h.5zm.208-2.113a10.78 10.78 0 00-.208 2.113h-.5c0-.756.075-1.496.218-2.211l.49.098zm.017-.11a.124.124 0 00-.012.055l-.5.012a.624.624 0 01.058-.278l.454.21zm4.591-6.744A10.788 10.788 0 001.492 9.73l-.489-.106A11.288 11.288 0 015.79 2.623l.277.416zm.084-.061a.125.125 0 00-.045.029l-.355-.352a.625.625 0 01.22-.144l.18.467zm.15.813a10.032 10.032 0 00-4.031 5.92l-.487-.115A10.532 10.532 0 016.014 3.38l.286.41zm1.179 1.44L5.982 3.765l.35-.357 1.497 1.468-.35.357zM5.85 8.549l1.574-3.595.458.2L6.309 8.75l-.458-.2zm-2.508 1.753l2.591-1.856.291.407-2.59 1.856-.292-.407zm.02.42L1.9 9.869l.251-.432 1.464.851-.252.433zm.316 4.148l-.749-3.625.49-.101.748 3.625-.49.101zm-.783 2.186l.791-2.317.473.161-.79 2.318-.474-.162zm-.893-5.049c0 1.823.49 3.532 1.346 5.004l-.432.252a10.428 10.428 0 01-1.414-5.256h.5zm.117-1.532c-.077.5-.117 1.011-.117 1.532h-.5c0-.546.042-1.084.123-1.608l.494.076zM2 10.22l1.302.757-.251.432-1.303-.757L2 10.22zm1.858 7.577a10.077 10.077 0 001.875 1.989l-.314.389a10.579 10.579 0 01-1.968-2.088l.407-.29zm.947-2.454l-.914 2.68-.473-.162.914-2.68.473.162zm2.668.613l-2.942-.447.075-.494 2.942.447-.075.494zm2.422 2.831l-2.572-2.913.375-.33 2.572 2.912-.375.331zm-.837 1.2l.805-1.484.44.238-.806 1.484-.44-.238zm-3.473-.257l3.7.126-.016.5-3.701-.126.017-.5zm-1.2-5.17l-.7-3.394.489-.1.7 3.393-.49.101zm3.014.623l-2.807-.426.075-.495 2.807.427-.075.494zM8.672 11.7l-.997 3.307-.479-.144.998-3.307.478.144zm-2.155-2.48l2.098 2.237-.364.342-2.099-2.237.365-.342zm-2.734 1.692l2.406-1.724.291.406-2.406 1.724-.291-.406zm6.71 7.414L7.935 15.43l.375-.33 2.557 2.896-.374.331zm3.99-.592l-3.759.673-.088-.492 3.76-.674.087.493zm1.201-3.984l-1.003 3.801-.484-.127 1.004-3.801.483.127zm-2.351-2.796l2.296 2.566-.372.333-2.297-2.565.373-.334zm-4.228.657l3.996-.736.09.492-3.996.736-.09-.492zm-1.222 3.58l1.028-3.406.478.144-1.027 3.407-.479-.144zm1.5 5.921l-2.688-.091.017-.5 2.687.091-.017.5zm2.28 1.349L9.266 21.08l.25-.433 2.396 1.381-.25.434zm-4.83-1.904a9.925 9.925 0 004.96 1.437l-.01.5a10.426 10.426 0 01-5.209-1.509l.26-.428zm7.856-2.095l-3.862.691-.088-.492 3.862-.691.088.492zm1.267 1.08l-1.464-1.128.305-.396 1.465 1.128-.306.396zm-1.536 2.234l1.472-2.557.434.25-1.473 2.557-.433-.25zm-1.268.153a9.933 9.933 0 001.42-.27l.129.484c-.484.129-.982.224-1.492.283l-.057-.497zm-3.025-1.8l3.179 1.832-.25.433-3.178-1.832.25-.433zm.875-1.102l-.78 1.438-.44-.239.78-1.438.44.239zm6.07.655l-1.148 1.994-.433-.25 1.148-1.994.433.25zm2.895-.91l-3.032 1.022-.16-.474 3.032-1.022.16.474zm-4.35 2.546c1.598-.622 2.999-1.645 4.078-2.943l.384.32a10.548 10.548 0 01-4.281 3.09l-.182-.467zm-2.839-11.028l1.264-3.253.466.18-1.263 3.254-.466-.181zm-3.834.585l4.022-.74.09.491-4.021.74-.09-.491zM7.01 8.646l2.162 2.305-.365.342-2.162-2.305.365-.342zM8.601 5.39L7.057 8.917l-.458-.2 1.544-3.528.458.2zm3.544-.738l-3.715.881-.116-.486 3.716-.881.115.486zm1.935 2.634l-2.188-2.72.39-.313 2.188 2.72-.39.313zm4.108 1.082l-3.293-.631.094-.491 3.293.63-.094.492zm.325 3.477l-.526-3.688.495-.07.526 3.688-.495.07zm-2.667 1.057l2.808-1.319.212.453-2.807 1.319-.213-.453zm-1.939-2.433l2.232 2.493-.373.333-2.231-2.492.372-.334zm1.268-2.887l-1.22 3.144-.467-.18L14.709 7.4l.466.18zm4.047 5.119l-2.938 1.38-.212-.453 2.937-1.38.213.453zm2.49 2.246l-2.756-2.28.319-.385 2.757 2.28-.32.385zm-1.268 2.402a9.941 9.941 0 001.187-2.661l.482.134c-.28 1-.703 1.94-1.247 2.795l-.422-.268zM16.59 18.59l3.985-1.344.16.474-3.985 1.344-.16-.474zm-1.267-1.116l1.5 1.155-.306.396-1.5-1.155.306-.396zm1.097-3.556l-1.008 3.818-.484-.128 1.008-3.817.484.127zm3.998-8.177a10.45 10.45 0 012.079 6.266h-.5a9.95 9.95 0 00-1.98-5.967l.401-.3zM18.75 7.752l1.256-1.996.423.267-1.256 1.996-.423-.267zm.527 4.118l-.563-3.95.495-.07.563 3.949-.495.07zm2.628 2.258l-2.54-2.101.319-.385 2.54 2.1-.319.386zm.592-2.122c0 .675-.064 1.336-.187 1.977l-.491-.095c.117-.609.178-1.238.178-1.882h.5zm-9.579-8.165l2.188 2.72-.39.313-2.188-2.72.39-.313zm1.705-1.63l-1.712 1.951-.375-.33 1.711-1.95.376.33zm4.906 3.223a10.016 10.016 0 00-5.153-3.144l.119-.486a10.516 10.516 0 015.411 3.302l-.377.328zm-1.353 1.817l1.33-2.114.423.266-1.33 2.114-.423-.266zm-3.218-.779l3.477.666-.094.491-3.477-.666.094-.491zm-2.964-4.469a9.92 9.92 0 00-5.06 1.38l-.254-.43a10.42 10.42 0 015.314-1.45v.5zm1.551.12a10.042 10.042 0 00-1.551-.12v-.5c.553 0 1.097.043 1.629.126l-.078.494zm-1.705 1.36l1.556-1.772.376.33-1.556 1.773-.376-.33zm-3.68.825l3.81-.903.116.487-3.81.903-.115-.487zM6.983 2.99l1.411 1.383-.35.357-1.411-1.383.35-.357z" fill="#fff"/></svg>