<svg width="24" height="24" viewBox="0 0 24 24" fill="none" xmlns="http://www.w3.org/2000/svg"><path d="M22.852 6.852A12.002 12.002 0 0012.718.022 12.011 12.011 0 001.847 5.604a11.996 11.996 0 004.082 16.744A12.011 12.011 0 0012.046 24a11.867 11.867 0 005.127-1.2 11.994 11.994 0 005.679-15.948zm-2.174 1.02a9.595 9.595 0 01.673 6.312 9.602 9.602 0 01-5.139-10.8 9.459 9.459 0 014.502 4.488h-.036zm-17.3 8.256a9.595 9.595 0 01-.673-6.312 9.602 9.602 0 015.139 10.8 9.422 9.422 0 01-4.467-4.488zm12.798 4.536a9.525 9.525 0 01-6.003.72c.688-2.71.408-5.575-.793-8.1a11.895 11.895 0 00-5.835-5.712 9.41 9.41 0 014.37-4.236 9.537 9.537 0 014.13-.936c.65.012 1.298.084 1.934.216a11.995 11.995 0 006.58 13.812 9.41 9.41 0 01-4.383 4.236z" fill="#fff"/></svg>