<svg width="125" height="132" viewBox="0 0 125 132" fill="none" xmlns="http://www.w3.org/2000/svg"><path d="M121.857 47.343c-3.223-11.876-9.102-22.897-17.206-32.258C96.546 5.725 86.419-1.742 75.008-6.77a85.34 85.34 0 00-36.322-7.208A85.256 85.256 0 002.739-5.14l-.771.344C-9.25.925-19.02 9.045-26.621 18.967c-.222.226-.41.48-.56.758-9.646 12.798-15.293 28.08-16.25 43.98-.959 15.899 2.813 31.729 10.854 45.557.165.462.427.885.771 1.24 7.492 12.29 18.088 22.468 30.76 29.547A84.425 84.425 0 0034.76 151H40.506c14.613-.024 28.967-3.79 41.647-10.928 12.68-7.138 23.25-17.401 30.665-29.777.378-.368.666-.815.841-1.309 10.883-18.81 13.827-41.066 8.198-61.987v.344zm-11.771-11.64l-.561-.344c-1.892-1.377-3.854-2.824-5.886-4.132l-1.191-.758a164.107 164.107 0 00-7.007-4.201L93.9 25.44c-2.383-1.308-4.835-2.617-7.428-3.788h-.42c-2.663-1.24-5.396-2.48-8.199-3.65l-1.821-1.034c-2.803-1.102-5.606-2.204-8.479-3.168l-1.331-.55-8.058-2.55-1.542-.481a486.285 486.285 0 00-8.618-2.204l-1.962-.414c-3.083-.688-6.166-1.308-9.25-1.79a69.29 69.29 0 012.873-6.888c.35-.757.771-1.515 1.192-2.204.42-.689 1.33-2.41 2.032-3.65 14.096.384 27.816 4.562 39.664 12.08 11.848 7.516 21.372 18.085 27.533 30.553zM6.943.371A77.479 77.479 0 0134.41-7c-.49.964-.84 1.928-1.331 2.893l-1.121 2.48a76.402 76.402 0 00-3.294 9.228c-7.007 24.244-3.713 50.761 8.058 61.988-2.83 7.66-8.086 14.227-14.995 18.734C5.962 57.744 1.688 20.55 6.943.37zm-28.028 22.384A77.182 77.182 0 01-1.045 4.916c-2.973 30.151 2.912 60.508 16.957 87.472a87.408 87.408 0 01-20.11 8.884c-13.874-27.48-20.741-59.92-16.607-78.517h-.28zM-36.571 68.35a74.148 74.148 0 017.498-32.578c1.23 23.313 7.337 46.126 17.938 67.016a75.019 75.019 0 01-16.046 1.653 74.274 74.274 0 01-9.39-36.09zm13.664 42.909c32.022-1.515 61.451-21.764 66.356-40.154a38.43 38.43 0 0123.263 3.03C58.935 93.008 31.677 119.87.847 133.162a77.058 77.058 0 01-23.754-21.695v-.207zm56.897 32.854a77.42 77.42 0 01-25.296-6.888C39.034 122.692 64.75 95.9 73.09 77.097a86.592 86.592 0 0116.957 11.916c-6.377 17.563-30.2 41.325-56.056 55.1zm14.014 0c21.721-13.775 40.29-33.474 47.437-49.935a74.06 74.06 0 0110.721 13.775c-6.182 10.044-14.653 18.539-24.746 24.814a77.972 77.972 0 01-33.412 11.346zm62.082-42.978C92.708 74.618 60.126 59.81 41.487 64.838c-6.408-7.778-9.787-17.545-9.53-27.55 35.876 5.165 71.192 24.932 84.855 41.325a74.07 74.07 0 01-6.726 22.384v.138zm7.497-31.683C93.591 48.356 63.764 34.74 31.888 30.332a84.457 84.457 0 012.662-17.908 183.87 183.87 0 0135.736 9.78l5.535 2.204 5.256 2.342 5.045 2.48a127.727 127.727 0 0116.536 9.917l1.752 1.24 1.822 1.446 2.032 1.653 1.541 1.378 1.892 1.722 1.332 1.377 1.401 1.515a74.58 74.58 0 013.153 18.872V69.452z" fill="#fff" fill-opacity=".25"/></svg>