<svg width="24" height="24" viewBox="0 0 24 24" fill="none" xmlns="http://www.w3.org/2000/svg"><path d="M22.31 5.887a1.022 1.022 0 00-.084-.12 12.061 12.061 0 00-6.91-5.28 12.141 12.141 0 00-8.687.721h-.084a12.045 12.045 0 00-4.593 4.124 11.931 11.931 0 00-.695 11.87 12.02 12.02 0 004.08 4.627l.4.24.12.084A12.042 12.042 0 0011.94 24h.253a12.128 12.128 0 005.973-1.723 12.03 12.03 0 004.316-4.449 11.936 11.936 0 00-.173-11.941zm-1.919 1.391c.322.555.585 1.142.785 1.751a12.14 12.14 0 00-3.622-.587.984.984 0 00-.374 0 11.87 11.87 0 00-4.322.875 9.457 9.457 0 01-2.22-1.919 9.897 9.897 0 019.753-.12zm-8.45-4.87A9.535 9.535 0 0116.77 3.69a9.438 9.438 0 00-1.208-.084 12.128 12.128 0 00-6.277 1.764 9.554 9.554 0 01-.772-2.327 9.614 9.614 0 013.428-.636zm-7.243 3.25a9.95 9.95 0 011.605-1.427A11.845 11.845 0 008.381 8.45a11.928 11.928 0 003.56 3.088 9.418 9.418 0 01-.93 3.454 9.65 9.65 0 01-4.574-3.508 9.555 9.555 0 01-1.74-5.476v-.348zm-2.414 6.346a9.66 9.66 0 01.434-2.843 11.972 11.972 0 002.535 4.717A12.067 12.067 0 009.6 17.03a9.46 9.46 0 01-3.537 2.568 9.61 9.61 0 01-2.778-3.36 9.547 9.547 0 01-1-4.234zm9.488 9.597a9.47 9.47 0 01-3.15-.588 11.963 11.963 0 003.898-3.863 11.943 11.943 0 001.835-5.853 9.36 9.36 0 012.149-.432 9.54 9.54 0 01-.525 6.17 9.62 9.62 0 01-4.207 4.566zm5.094-1.344a11.874 11.874 0 002.318-7.053 12.735 12.735 0 00-.218-2.255c.908.16 1.79.442 2.62.84v.215a9.55 9.55 0 01-1.264 4.74 9.625 9.625 0 01-3.456 3.501v.012z" fill="#fff"/></svg>